# Blender v2.90.0 OBJ File: 'spaceship.blend'
# www.blender.org
mtllib demo.mtl
o Cube_Cube.001
v -1.000000 -1.000000 1.000000
v -1.000000 0.859602 1.000000
v -1.000000 -1.000000 -1.000000
v -1.000000 0.859602 -1.000000
v 1.000000 -1.000000 1.000000
v 1.000000 0.859602 1.000000
v 1.000000 -1.000000 -1.000000
v 1.000000 0.859602 -1.000000
v 5.142736 0.072632 -0.560088
v 4.691624 -0.952692 -0.560088
v 4.691624 -0.952692 0.560088
v 5.142736 0.072632 0.560088
v -5.363092 0.173125 -1.000000
v -5.363092 0.173125 1.000000
v -5.363092 1.021862 1.000000
v -5.363092 1.021862 -1.000000
v -1.000000 0.000000 1.000000
v -1.000000 0.000000 -1.000000
v 1.000000 0.000000 -1.000000
v 1.000000 0.000000 1.000000
v 4.917180 -0.440030 -0.560088
v 4.917180 -0.440030 0.560088
v -8.720194 0.597494 4.234526
v -8.720194 0.597494 -4.234526
v -1.000000 0.500000 1.000000
v -8.720194 0.809678 4.234526
v -1.000000 0.500000 -1.000000
v 1.000000 0.500000 -1.000000
v 1.000000 0.500000 1.000000
v 5.029958 -0.183699 -0.560088
v 5.029958 -0.183699 0.560088
v -8.720194 0.809678 -4.234526
v -2.066530 0.732571 -5.441715
v -2.066530 0.501691 -5.441715
v 0.283626 0.491080 -3.924738
v 0.283626 0.180452 -3.924738
v 0.283626 0.491080 3.924738
v 0.283626 0.180452 3.924738
v -3.298840 0.938343 -7.044377
v -3.298840 0.644146 -7.044377
v -2.066530 0.501691 5.441715
v -3.605711 0.644146 6.617048
v -2.066530 0.732571 5.441715
v -3.605711 0.938343 6.617048
v -7.311172 0.537696 -0.236364
v -7.311172 0.537696 0.236364
v -7.311172 0.688154 0.236364
v -7.311172 0.738307 0.236364
v -7.311172 0.738307 -0.236364
v -7.311172 0.638001 -0.236364
v -7.311172 0.638001 0.236364
v -7.311172 0.688154 -0.236364
v -13.632763 0.809678 -3.211267
v -13.632763 0.597494 -3.211267
v -13.632763 0.597494 3.211267
v -13.632763 0.809678 3.211267
v -6.029212 0.938343 -8.357395
v -6.029212 0.644146 -8.357395
v -5.722342 0.644146 8.784723
v -5.722342 0.938343 8.784723
v -18.993046 0.809678 -0.758353
v -18.993046 0.597494 -0.758353
v -18.993046 0.597494 0.758353
v -18.993046 0.809678 0.758353
v -14.465248 0.938343 -6.642570
v -14.465248 0.644146 -6.642570
v -14.465248 0.644146 6.642570
v -14.465248 0.938343 6.642570
v 3.962320 0.390968 2.798717
v 4.678694 0.500000 2.006344
v 4.678694 0.500000 -2.006344
v 4.678694 0.000000 -2.006344
v 4.678694 0.000000 2.006344
v 3.962320 0.390968 -2.798717
v 3.962320 0.280564 -2.798717
v 3.962320 0.280564 2.798717
v 5.700013 0.327312 2.798717
v 6.416387 0.365584 2.006344
v 6.416387 0.365584 -2.006344
v 6.416387 0.190077 -2.006344
v 6.416387 0.190077 2.006344
v 5.700013 0.327312 -2.798717
v 5.700013 0.288559 -2.798717
v 5.700013 0.288559 2.798717
vt 0.500000 0.250000
vt 0.375000 0.250000
vt 0.375000 0.250000
vt 0.500000 0.250000
vt 0.562500 0.250000
vt 0.625000 0.250000
vt 0.625000 0.500000
vt 0.562500 0.500000
vt 0.562500 0.750000
vt 0.625000 0.750000
vt 0.625000 1.000000
vt 0.562500 1.000000
vt 0.125000 0.500000
vt 0.375000 0.500000
vt 0.375000 0.750000
vt 0.125000 0.750000
vt 0.562500 0.500000
vt 0.625000 0.500000
vt 0.625000 0.750000
vt 0.562500 0.750000
vt 0.500000 0.750000
vt 0.375000 0.750000
vt 0.500000 0.750000
vt 0.375000 0.500000
vt 0.875000 0.750000
vt 0.875000 0.500000
vt 0.875000 0.500000
vt 0.875000 0.750000
vt 0.625000 1.000000
vt 0.562500 1.000000
vt 0.875000 0.750000
vt 0.875000 0.500000
vt 0.125000 0.750000
vt 0.125000 0.500000
vt 0.375000 1.000000
vt 0.500000 1.000000
vt 0.500000 1.000000
vt 0.375000 1.000000
vt 0.562500 0.250000
vt 0.500000 0.250000
vt 0.562500 0.250000
vt 0.500000 0.500000
vt 0.500000 0.500000
vt 0.562500 0.250000
vt 0.500000 0.250000
vt 0.500000 0.250000
vt 0.562500 0.250000
vt 0.625000 0.250000
vt 0.500000 0.500000
vt 0.562500 0.500000
vt 0.625000 1.000000
vt 0.562500 1.000000
vt 0.500000 0.750000
vt 0.500000 1.000000
vt 0.562500 1.000000
vt 0.562500 0.750000
vt 0.562500 0.250000
vt 0.500000 0.250000
vt 0.562500 1.000000
vt 0.500000 1.000000
vt 0.562500 0.500000
vt 0.500000 0.500000
vt 0.500000 1.000000
vt 0.500000 1.000000
vt 0.500000 0.750000
vt 0.500000 0.750000
vt 0.562500 0.000000
vt 0.625000 0.000000
vt 0.625000 0.250000
vt 0.375000 0.000000
vt 0.500000 0.000000
vt 0.375000 0.250000
vt 0.125000 0.750000
vt 0.125000 0.500000
vt 0.500000 0.000000
vt 0.562500 0.000000
vt 0.500000 1.000000
vt 0.375000 1.000000
vt 0.562500 1.000000
vt 0.562500 1.000000
vt 0.562500 1.000000
vt 0.562500 1.000000
vt 0.500000 0.250000
vt 0.500000 0.250000
vt 0.500000 0.250000
vt 0.562500 0.250000
vt 0.500000 0.000000
vt 0.562500 0.000000
vt 0.562500 0.000000
vt 0.500000 0.000000
vt 0.500000 0.000000
vt 0.562500 0.000000
vt 0.562500 0.250000
vt 0.562500 0.250000
vt 0.500000 1.000000
vt 0.500000 1.000000
vt 0.562500 0.750000
vt 0.500000 0.750000
vt 0.562500 0.750000
vt 0.562500 0.500000
vt 0.562500 0.500000
vt 0.562500 0.500000
vt 0.500000 0.500000
vt 0.562500 0.750000
vt 0.500000 0.750000
vt 0.562500 0.750000
vt 0.500000 0.500000
vt 0.500000 0.500000
vn -0.0368 -0.9281 -0.3705
vn 0.0000 0.0000 -1.0000
vn 0.0000 0.0000 1.0000
vn 0.0000 -1.0000 0.0000
vn 0.9153 -0.4027 0.0000
vn 0.1036 -0.0190 -0.9944
vn 0.1140 -0.0170 0.9933
vn 0.0128 -0.9999 0.0000
vn -0.1440 0.9896 0.0000
vn 0.1138 0.9514 0.2863
vn 0.0372 0.9993 0.0000
vn -0.2597 -0.9657 0.0000
vn -0.0368 -0.9281 0.3705
vn -0.9431 0.0000 0.3324
vn 0.1140 -0.0170 -0.9933
vn 0.4334 0.0000 -0.9012
vn 0.1138 0.9514 -0.2863
vn 0.1036 -0.0190 0.9944
vn 0.2639 0.0000 0.9646
vn -0.1426 0.9875 -0.0679
vn -0.0452 -0.9957 0.0813
vn 0.0490 0.9986 -0.0185
vn 0.7927 0.0000 -0.6096
vn 0.6069 0.0000 0.7948
vn 0.5423 0.0000 0.8402
vn 0.5423 0.0000 -0.8402
vn 0.0015 -1.0000 0.0093
vn 0.0231 0.9977 0.0636
vn 0.0490 0.9986 0.0185
vn -0.0452 -0.9957 -0.0813
vn -0.0323 -0.9946 0.0991
vn -0.0314 -0.9951 -0.0941
vn 0.0156 -0.9915 0.1290
vn 0.0237 0.9975 -0.0669
vn -1.0000 0.0000 0.0000
vn -0.1840 -0.9829 0.0000
vn -0.1426 0.9875 0.0679
vn -0.9431 0.0000 -0.3324
vn -0.2097 -0.9760 -0.0593
vn -0.2097 -0.9760 0.0593
vn 0.0113 0.9993 -0.0347
vn -0.0038 -0.9999 -0.0127
vn 0.0004 -0.9999 -0.0110
vn 0.2039 0.0000 0.9790
vn -0.0042 0.9997 -0.0255
vn 0.7155 0.0000 0.6986
vn -0.0012 0.9995 0.0304
vn 0.2039 0.0000 -0.9790
vn -0.7925 0.0000 0.6098
vn -0.7925 0.0000 -0.6098
vn -0.2380 0.0000 0.9713
vn 0.4161 0.0000 -0.9093
vn 0.0105 0.9993 0.0349
vn -0.0041 -0.9999 0.0126
vn -0.1992 0.0000 -0.9800
vn 0.4161 0.0000 0.9093
vn 0.0563 0.9882 -0.1428
vn 0.0156 -0.9915 -0.1290
vn 0.2927 0.0000 -0.9562
vn 0.0142 0.9992 -0.0372
vn 0.2639 0.0000 -0.9646
vn 0.2927 0.0000 0.9562
vn 0.0142 0.9992 0.0372
vn 0.7418 0.0000 0.6706
vn 0.7418 0.0000 -0.6706
vn 0.0563 0.9882 0.1428
vn 0.0546 -0.9588 -0.2787
vn 0.0546 -0.9588 0.2787
vn 0.1866 0.9824 0.0000
vn 0.0000 1.0000 0.0000
vn 0.1078 -0.0161 0.9940
vn 0.1078 -0.0161 -0.9940
usemtl Material.001
s off
f 18/1/1 3/2/1 13/3/1 24/4/1
f 27/5/2 4/6/2 8/7/2 28/8/2
f 29/9/3 6/10/3 2/11/3 25/12/3
f 3/13/4 7/14/4 5/15/4 1/16/4
f 30/17/5 9/18/5 12/19/5 31/20/5
f 28/8/6 8/7/6 9/18/6 30/17/6
f 20/21/7 5/15/7 11/22/7 22/23/7
f 5/15/8 7/14/8 10/24/8 11/22/8
f 15/25/9 16/26/9 49/27/9 48/28/9
f 25/12/10 2/11/10 15/29/10 26/30/10
f 2/31/11 4/32/11 16/26/11 15/25/11
f 3/13/12 1/16/12 14/33/12 13/34/12
f 1/35/13 17/36/13 23/37/13 14/38/13
f 32/39/14 24/4/14 50/40/14 52/41/14
f 7/14/15 19/42/15 21/43/15 10/24/15
f 10/24/5 21/43/5 22/23/5 11/22/5
f 5/15/3 20/21/3 17/36/3 1/35/3
f 3/2/2 18/1/2 19/42/2 7/14/2
f 39/44/16 40/45/16 58/46/16 57/47/16
f 4/6/17 27/5/17 32/39/17 16/48/17
f 6/10/18 29/9/18 31/20/18 12/19/18
f 28/8/19 19/42/19 72/49/19 71/50/19
f 26/30/20 15/29/20 48/51/20 47/52/20
f 17/36/21 20/21/21 38/53/21 41/54/21
f 29/9/22 25/12/22 43/55/22 37/56/22
f 33/57/23 34/58/23 40/45/23 39/44/23
f 41/54/24 43/55/24 44/59/24 42/60/24
f 38/53/25 37/56/25 43/55/25 41/54/25
f 34/58/26 33/57/26 35/61/26 36/62/26
f 23/37/27 42/60/27 59/63/27 55/64/27
f 32/39/28 27/5/28 33/57/28 39/44/28
f 27/5/29 28/8/29 35/61/29 33/57/29
f 19/42/30 18/1/30 34/58/30 36/62/30
f 23/37/31 17/36/31 41/54/31 42/60/31
f 18/1/32 24/4/32 40/45/32 34/58/32
f 38/53/33 20/21/33 73/65/33 76/66/33
f 25/12/34 26/30/34 44/59/34 43/55/34
f 47/67/35 48/68/35 49/69/35 52/41/35
f 46/70/35 51/71/35 50/40/35 45/72/35
f 51/71/35 47/67/35 52/41/35 50/40/35
f 13/34/36 14/33/36 46/73/36 45/74/36
f 16/48/37 32/39/37 52/41/37 49/69/37
f 23/75/38 26/76/38 47/67/38 51/71/38
f 14/38/39 23/37/39 51/77/39 46/78/39
f 24/4/40 13/3/40 45/72/40 50/40/40
f 60/79/41 56/80/41 64/81/41 68/82/41
f 58/46/42 54/83/42 62/84/42 66/85/42
f 40/45/43 24/4/43 54/83/43 58/46/43
f 24/4/44 32/39/44 53/86/44 54/83/44
f 44/59/45 26/30/45 56/80/45 60/79/45
f 42/60/46 44/59/46 60/79/46 59/63/46
f 32/39/47 39/44/47 57/47/47 53/86/47
f 26/76/48 23/75/48 55/87/48 56/88/48
f 64/89/49 63/90/49 67/91/49 68/92/49
f 62/84/50 61/93/50 65/94/50 66/85/50
f 59/63/51 60/79/51 68/82/51 67/95/51
f 56/88/52 55/87/52 63/90/52 64/89/52
f 53/86/53 57/47/53 65/94/53 61/93/53
f 55/64/54 59/63/54 67/95/54 63/96/54
f 57/47/55 58/46/55 66/85/55 65/94/55
f 54/83/56 53/86/56 61/93/56 62/84/56
f 69/97/3 76/66/3 84/98/3 77/99/3
f 74/100/57 71/50/57 79/101/57 82/102/57
f 19/42/58 36/62/58 75/103/58 72/49/58
f 36/62/59 35/61/59 74/100/59 75/103/59
f 35/61/60 28/8/60 71/50/60 74/100/60
f 20/21/61 29/9/61 70/104/61 73/65/61
f 37/56/62 38/53/62 76/66/62 69/97/62
f 29/9/63 37/56/63 69/97/63 70/104/63
f 81/105/64 78/106/64 77/99/64 84/98/64
f 79/101/65 80/107/65 83/108/65 82/102/65
f 73/65/2 70/104/2 78/106/2 81/105/2
f 70/104/66 69/97/66 77/99/66 78/106/66
f 72/49/67 75/103/67 83/108/67 80/107/67
f 76/66/68 73/65/68 81/105/68 84/98/68
f 75/103/2 74/100/2 82/102/2 83/108/2
f 71/50/3 72/49/3 80/107/3 79/101/3
usemtl Material.002
f 8/7/69 6/10/69 12/19/69 9/18/69
f 8/7/70 4/32/70 2/31/70 6/10/70
f 29/9/71 20/21/71 22/23/71 31/20/71
f 19/42/72 28/8/72 30/17/72 21/43/72
f 21/43/5 30/17/5 31/20/5 22/23/5
